<?xml version="1.0" encoding="utf-8"?>
<!-- Generator: Adobe Illustrator 25.4.1, SVG Export Plug-In . SVG Version: 6.00 Build 0)  -->
<svg version="1.1" id="Слой_3" xmlns="http://www.w3.org/2000/svg" xmlns:xlink="http://www.w3.org/1999/xlink" x="0px" y="0px"
	 viewBox="0 0 988.7 173.9" style="enable-background:new 0 0 988.7 173.9;" xml:space="preserve">
<style type="text/css">
	.st0{fill:#1E4A30;}
</style>
<g>
	<g>
		<path class="st0" d="M257.5,157.8h21.3l-21.2-65l-2.6-8.1l-2.6,8l-21.2,65.1h21.3v10.1h-30.2V67.7l15.9,8.6l2.4-4.5l-126-67.7
			l-2.4,4.5l14.2,7.6v38.6l-116,51.9l2.1,4.7l21.8-9.7v66.3H0v5.1h82.2h31.2h174.3v-5.1h-30.2V157.8z M82.2,167.9h-21v-43h21V167.9z
			 M108.3,167.9h-21v-43h21V167.9z M126.4,167.9h-13v-48.1H87.3v-10.4h39.1V167.9z M126.4,104.3H82.2v15.5H56.1v48.1H39.4V99.3
			l87.1-38.9V104.3z M194.1,167.9h-62.6v-58.5h62.6V167.9z M217.1,167.9h-17.9v-63.6h-67.7V58.1v-5.6V19l85.6,46V167.9z
			 M256.5,138.2l-1.6-23.1l-2,30l-6.5-6.5l6.1,12l-0.1,2.1h-14.2l16.8-51.5l16.8,51.5h-14.2l-0.6-9l6-11.8L256.5,138.2z"/>
		<path class="st0" d="M339.3,158.6c-7.3,0-12.9-3.2-17.3-7.3l-9.8,11.1c7.4,7.5,16.6,11.5,27.4,11.5c20.5,0,37.2-12.4,37.2-40
			c0-27.6-16.1-40.9-36.9-40.9c-10.8,0-20.5,4.7-26.5,10.1l9.8,11.3c4.7-3.8,9.5-6.2,15.6-6.2c10.2,0,16.9,5.1,18.9,16.7h-28.2v14.8
			h28.5C356.5,153,349.6,158.6,339.3,158.6z"/>
		<path class="st0" d="M415.8,140.1h9.2l22.2,33.8H467l-27.1-42.2l8.9-14.7c3.3-5.6,5.5-7.2,9.3-7.2c0.8,0,2.2,0,3.6,0.5l3.1-16.2
			c-1.8-0.8-4.5-1.1-6.8-1.1c-9.5,0-15.7,3.6-22.1,14.4L425,125.6h-9.2V94.4H397v79.5h18.9V140.1z"/>
		<path class="st0" d="M513.1,173.9c22.1,0,37.2-15.3,37.2-40.8c0-25.4-15.1-40.1-37.2-40.1c-22.1,0-37.2,14.6-37.2,40.1
			S491,173.9,513.1,173.9z M513.1,108.2c11.2,0,18.2,9.2,18.2,24.9c0,15.7-7.1,25.6-18.2,25.6c-11.2,0-18.2-9.9-18.2-25.6
			C494.9,117.4,501.9,108.2,513.1,108.2z"/>
		<polygon class="st0" points="570.5,173.9 589.4,173.9 589.4,109.5 616.9,109.5 616.9,173.9 635.7,173.9 635.7,94.4 570.5,94.4 		
			"/>
		<path class="st0" d="M730.4,133.1c0-25.4-15.1-40.1-37.2-40.1c-22.1,0-37.2,14.6-37.2,40.1s15.1,40.8,37.2,40.8
			C715.3,173.9,730.4,158.6,730.4,133.1z M675,133.1c0-15.7,7.1-24.9,18.2-24.9c11.2,0,18.2,9.2,18.2,24.9
			c0,15.7-7.1,25.6-18.2,25.6C682,158.6,675,148.7,675,133.1z"/>
		<path class="st0" d="M773.4,140c2.1-10.5,4-20.7,6.1-32h15.3v65.9h18.9V92.9h-48.6c-3,15.3-5.6,30.3-9,45.1
			c-3.9,17.1-6.8,19-11,19c-1.5,0-2.5-0.2-3.6-0.5l-3.4,16.2c2.7,0.9,5.3,1.2,9.8,1.2C761.1,173.9,767.9,166.7,773.4,140z"/>
		<path class="st0" d="M878.9,134.2l8.3-17.3h0.5c-0.9,8.8-2.4,19.4-2.4,28.8v28.2h18.7V94.4h-20L862.1,134l-8.3,17.4h-0.5
			c0.9-8.4,2.4-19.5,2.4-28.9V94.4h-18.7v79.5h20L878.9,134.2z"/>
		<path class="st0" d="M988.7,162.4l-9.8-11.1c-4,4.1-9.3,7.3-16,7.3c-12,0-19.8-9.3-19.8-25.4c0-15.7,8.9-25.1,20.1-25.1
			c5.9,0,10.4,2.6,14.5,6.2l9.8-11.3c-5.5-5.4-14.1-10.1-24.6-10.1c-20.7,0-38.7,15-38.7,40.9c0,26.3,17.4,40,38.1,40
			C972.8,173.9,981.9,169.9,988.7,162.4z"/>
	</g>
</g>
</svg>
