<svg width="81" height="50" viewBox="0 0 81 50" fill="none" xmlns="http://www.w3.org/2000/svg">
<path d="M56.3809 5.27967C56.7338 5.09883 57.1247 5.00452 57.5213 5.00452C57.9179 5.00452 58.3088 5.09883 58.6617 5.27967L73.6673 12.9825C74.0769 13.1924 74.4207 13.5113 74.6608 13.904C74.9008 14.2967 75.0278 14.7481 75.0278 15.2084V34.7906C75.0278 35.2509 74.9008 35.7022 74.6608 36.095C74.4207 36.4877 74.0769 36.8066 73.6673 37.0164L58.6617 44.7193C58.3088 44.9001 57.9179 44.9944 57.5213 44.9944C57.1247 44.9944 56.7338 44.9001 56.3809 44.7193L41.3753 37.0164C40.9657 36.8066 40.6219 36.4877 40.3819 36.095C40.1418 35.7022 40.0148 35.2509 40.0148 34.7906V15.2084C40.0157 14.7489 40.1432 14.2986 40.3832 13.9069C40.6232 13.5151 40.9665 13.197 41.3753 12.9875L56.3809 5.27967ZM60.9476 0.828022C59.8875 0.28384 58.713 0 57.5213 0C56.3297 0 55.1552 0.28384 54.095 0.828022L39.0895 8.53588C37.8623 9.16584 36.8325 10.1219 36.1133 11.2991C35.3941 12.4762 35.0134 13.8289 35.013 15.2084V34.7906C35.0125 36.1709 35.3928 37.5246 36.112 38.7027C36.8312 39.8809 37.8615 40.8377 39.0895 41.4681L54.095 49.1709C56.2458 50.2764 58.7968 50.2764 60.9476 49.1709L75.9531 41.4681C77.1811 40.8377 78.2114 39.8809 78.9307 38.7027C79.6499 37.5246 80.0302 36.1709 80.0297 34.7906V15.2084C80.0292 13.8289 79.6485 12.4762 78.9293 11.2991C78.2102 10.1219 77.1804 9.16584 75.9531 8.53588L60.9476 0.833026V0.828022ZM5.00185 9.99642C5.00185 9.33313 5.26534 8.69701 5.73436 8.228C6.20337 7.75898 6.83949 7.49549 7.50278 7.49549H27.5102C28.1735 7.49549 28.8096 7.75898 29.2786 8.228C29.7476 8.69701 30.0111 9.33313 30.0111 9.99642C30.0111 10.6597 29.7476 11.2958 29.2786 11.7648C28.8096 12.2339 28.1735 12.4973 27.5102 12.4973H7.50278C6.83949 12.4973 6.20337 12.2339 5.73436 11.7648C5.26534 11.2958 5.00185 10.6597 5.00185 9.99642ZM0 25.002C0 24.3387 0.26349 23.7026 0.732505 23.2336C1.20152 22.7645 1.83764 22.5011 2.50093 22.5011H22.5083C23.1716 22.5011 23.8077 22.7645 24.2768 23.2336C24.7458 23.7026 25.0093 24.3387 25.0093 25.002C25.0093 25.6653 24.7458 26.3014 24.2768 26.7704C23.8077 27.2394 23.1716 27.5029 22.5083 27.5029H2.50093C1.83764 27.5029 1.20152 27.2394 0.732505 26.7704C0.26349 26.3014 0 25.6653 0 25.002ZM5.00185 40.0075C5.00185 39.3443 5.26534 38.7081 5.73436 38.2391C6.20337 37.7701 6.83949 37.5066 7.50278 37.5066H27.5102C28.1735 37.5066 28.8096 37.7701 29.2786 38.2391C29.7476 38.7081 30.0111 39.3443 30.0111 40.0075C30.0111 40.6708 29.7476 41.307 29.2786 41.776C28.8096 42.245 28.1735 42.5085 27.5102 42.5085H7.50278C6.83949 42.5085 6.20337 42.245 5.73436 41.776C5.26534 41.307 5.00185 40.6708 5.00185 40.0075ZM45.2818 16.3788C45.579 15.7871 46.0986 15.3375 46.7268 15.1284C47.3551 14.9193 48.0406 14.9678 48.633 15.2634L57.5213 19.705L66.4046 15.2634C66.6985 15.1132 67.0193 15.0227 67.3483 14.9971C67.6774 14.9715 68.0083 15.0113 68.3219 15.1142C68.6355 15.2171 68.9257 15.381 69.1756 15.5966C69.4256 15.8121 69.6304 16.075 69.7782 16.3701C69.9261 16.6652 70.0141 16.9866 70.0372 17.3158C70.0602 17.6451 70.0179 17.9756 69.9126 18.2885C69.8073 18.6013 69.6411 18.8901 69.4236 19.1384C69.2061 19.3867 68.9417 19.5894 68.6454 19.735L60.0222 24.0516V35.0057C60.0222 35.669 59.7588 36.3051 59.2897 36.7741C58.8207 37.2431 58.1846 37.5066 57.5213 37.5066C56.858 37.5066 56.2219 37.2431 55.7529 36.7741C55.2839 36.3051 55.0204 35.669 55.0204 35.0057V24.0466L46.3972 19.735C45.8055 19.4379 45.3559 18.9182 45.1468 18.29C44.9377 17.6618 44.9862 16.9713 45.2818 16.3788Z" fill="#3E7A4A"/>
</svg>
