<svg width="71" height="54" viewBox="0 0 71 54" fill="none" xmlns="http://www.w3.org/2000/svg">
<path d="M17 12V7C17 5.67392 16.4732 4.40215 15.5355 3.46447C14.5979 2.52678 13.3261 2 12 2C10.6739 2 9.40215 2.52678 8.46447 3.46447C7.52678 4.40215 7 5.67392 7 7V18.6667" stroke="#3E7A4A" stroke-width="3.83" stroke-linecap="round" stroke-linejoin="round"/>
<path d="M42 32C42 20.955 33.045 12 22 12C10.955 12 2 20.955 2 32V52H42M42 32V52M42 32H68.6667V52H42" stroke="#3E7A4A" stroke-width="3.83" stroke-linejoin="round"/>
<path d="M21.9999 38.6666C25.6818 38.6666 28.6666 35.6818 28.6666 31.9999C28.6666 28.318 25.6818 25.3333 21.9999 25.3333C18.318 25.3333 15.3333 28.318 15.3333 31.9999C15.3333 35.6818 18.318 38.6666 21.9999 38.6666Z" stroke="#3E7A4A" stroke-width="5.83333"/>
<path d="M60.3333 32V38.6667M50.3333 32V38.6667M45.3333 32H65.3333" stroke="#3E7A4A" stroke-width="4" stroke-linecap="round" stroke-linejoin="round"/>
</svg>
