<svg width="57" height="50" viewBox="0 0 57 50" fill="none" xmlns="http://www.w3.org/2000/svg">
<path fill-rule="evenodd" clip-rule="evenodd" d="M53.1725 0H3.54483C2.60468 0 1.70304 0.373453 1.03825 1.03832C0.373471 1.7031 0 2.60469 0 3.54484V38.9932C0 39.9333 0.373471 40.835 1.03825 41.4998C1.70304 42.1646 2.60468 42.538 3.54483 42.538H30.1311L31.1414 41.2974L32.7897 39.2768L32.6302 38.9932H3.54483V3.54484H53.1725V18.7168C54.5191 19.5884 55.716 20.6717 56.7173 21.9248V3.54484C56.7173 2.60469 56.3438 1.7031 55.6791 1.03832C55.0143 0.373453 54.1126 0 53.1725 0ZM8.86204 10.6346H38.9931V13.4704H8.86204V10.6346ZM28.3586 17.7242H8.86204V20.56H28.3586V17.7242ZM8.86204 30.1311H26.5862V32.9669H8.86204V30.1311ZM45.1169 19.9043C42.8519 19.8881 40.6344 20.5546 38.7536 21.8171C36.8703 23.0813 35.4123 24.8841 34.5699 26.99C33.7275 29.096 33.54 31.4071 34.0319 33.6213C34.5238 35.8355 35.6722 37.8498 37.3271 39.4009L33.8886 43.6016L35.4838 50L41.9708 42.095C44.0242 42.7022 46.2095 42.7022 48.2629 42.095L54.75 50L56.3452 43.6016L52.9066 39.4009C54.5615 37.8498 55.7099 35.8355 56.2018 33.6213C56.6937 31.4071 56.5062 29.096 55.6638 26.99C54.8214 24.8841 53.3634 23.0813 51.4801 21.8171C49.5994 20.5546 47.3819 19.8881 45.1169 19.9043ZM40.9111 37.495C42.1532 38.347 43.6196 38.8128 45.1257 38.8338C47.1644 38.8433 49.1239 38.0448 50.5755 36.6132C52.0271 35.1815 52.8525 33.2333 52.8712 31.1946C52.8711 29.6883 52.4256 28.2156 51.5908 26.9618C50.756 25.708 49.5691 24.729 48.1795 24.1478C46.7898 23.5666 45.2593 23.4092 43.7805 23.6955C42.3016 23.9817 40.9403 24.6988 39.8679 25.7565C38.7954 26.8143 38.0596 28.1654 37.753 29.6402C37.4463 31.1149 37.5824 32.6475 38.1444 34.0451C38.7063 35.4427 39.6688 36.6429 40.9111 37.495Z" fill="#3E7A4A"/>
</svg>
