<svg width="71" height="50" viewBox="0 0 71 50" fill="none" xmlns="http://www.w3.org/2000/svg">
<path d="M7.65183 22.7921C3.91524 19.9841 2.13586 15.3012 3.01672 10.7561H44.8489V23.3902H8.44781L7.65183 22.7921Z" fill="white" stroke="#3E7A4A" stroke-width="2"/>
<path d="M63.0799 22.7921C66.8165 19.9841 68.5958 15.3012 67.715 10.7561H25.8828V23.3902H62.2839L63.0799 22.7921Z" fill="white" stroke="#3E7A4A" stroke-width="2"/>
<path d="M11.5198 37.9216C7.93392 34.7956 6.24198 30.0478 7.00519 25.3903H42.7932V38.0244H11.6378L11.5198 37.9216Z" fill="white" stroke="#3E7A4A" stroke-width="2"/>
<path d="M57.9924 37.9216C61.5783 34.7956 63.2702 30.0478 62.507 25.3903H26.719V38.0244H57.8744L57.9924 37.9216Z" fill="white" stroke="#3E7A4A" stroke-width="2"/>
<circle cx="34.7561" cy="25" r="23.5" fill="white" stroke="#3E7A4A" stroke-width="3"/>
<path d="M32.4192 12.1288L35.3658 8.4836L38.3125 12.1288C38.9342 12.8979 39.9508 13.2282 40.9058 12.9714L45.4323 11.7544L45.6736 16.4354C45.7245 17.4231 46.3528 18.2879 47.2764 18.6415L51.6538 20.3175L49.0975 24.2463C48.5582 25.0753 48.5582 26.1442 49.0975 26.9731L51.6538 30.902L47.2764 32.578C46.3528 32.9316 45.7245 33.7964 45.6736 34.784L45.4323 39.4651L40.9058 38.248C39.9508 37.9912 38.9342 38.3216 38.3125 39.0906L35.3658 42.7359L32.4192 39.0906C31.7975 38.3216 30.7809 37.9912 29.8258 38.248L25.2993 39.4651L25.0581 34.784C25.0072 33.7964 24.3788 32.9316 23.4553 32.578L19.0779 30.902L21.6342 26.9731C22.1735 26.1442 22.1735 25.0753 21.6342 24.2463L19.0779 20.3175L23.4553 18.6415C24.3788 18.2879 25.0072 17.4231 25.0581 16.4354L25.2993 11.7544L29.8258 12.9714C30.7809 13.2282 31.7975 12.8979 32.4192 12.1288Z" fill="white" stroke="#3E7A4A" stroke-width="3"/>
<path d="M34.9398 18.1002L36.4884 22.3164L36.729 22.9716H37.4271H42.0706L38.4236 25.3155L37.7492 25.749L38.0256 26.5015L39.4855 30.4762L35.4805 27.9021L34.9398 27.5546L34.3991 27.9021L30.3941 30.4762L31.854 26.5015L32.1304 25.749L31.456 25.3155L27.809 22.9716H32.4525H33.1505L33.3912 22.3164L34.9398 18.1002Z" fill="white" stroke="#3E7A4A" stroke-width="2"/>
</svg>
