<svg width="62" height="50" viewBox="0 0 62 50" fill="none" xmlns="http://www.w3.org/2000/svg">
<path d="M55.4167 35.2693C57.1667 35.2693 58.625 35.8585 59.7917 37.037C60.6667 38.2154 61.25 39.6885 61.25 41.1616L37.9167 50L17.5 44.1077V17.5925H23.0417L44.3333 25.5471C45.7917 26.1363 46.6667 27.3148 46.6667 28.7878C46.6667 29.6717 46.375 30.5555 45.7917 31.1447C45.2083 31.734 44.0417 32.3232 43.1667 32.3232H35L29.75 30.2609L28.875 32.9124L35 35.2693H55.4167ZM0 17.5925H11.6667V50H0V17.5925Z" fill="#3E7A4A"/>
<rect x="26.0834" width="8" height="26.7401" fill="#3E7A4A"/>
<rect x="43.3436" width="8" height="26.7401" fill="#3E7A4A"/>
<rect x="31.0834" y="17.1718" width="8.08081" height="20" transform="rotate(-90 31.0834 17.1718)" fill="#3E7A4A"/>
</svg>
