<svg width="53" height="50" viewBox="0 0 53 50" fill="none" xmlns="http://www.w3.org/2000/svg">
<path d="M38.2812 25C36.2507 25 34.3033 25.7682 32.8675 27.1357C31.4316 28.5031 30.625 30.3578 30.625 32.2917C30.625 34.2255 31.4316 36.0802 32.8675 37.4477C34.3033 38.8151 36.2507 39.5833 38.2812 39.5833H52.5V50H0V14.5833H52.5V25H38.2812ZM40.4688 35.4167H38.2812C37.411 35.4167 36.5764 35.0874 35.9611 34.5014C35.3457 33.9153 35 33.1205 35 32.2917C35 31.4629 35.3457 30.668 35.9611 30.082C36.5764 29.4959 37.411 29.1667 38.2812 29.1667H40.4688C41.339 29.1667 42.1736 29.4959 42.7889 30.082C43.4043 30.668 43.75 31.4629 43.75 32.2917C43.75 33.1205 43.4043 33.9153 42.7889 34.5014C42.1736 35.0874 41.339 35.4167 40.4688 35.4167ZM35 0L43.75 10.4167H17.5L35 0Z" fill="#3E7A4A"/>
</svg>
