<svg width="70" height="50" viewBox="0 0 70 50" fill="none" xmlns="http://www.w3.org/2000/svg">
<path d="M49.5833 11.8944C49.5833 17.3064 40.6997 26.9508 36.7986 30.9255C35.8628 31.877 34.125 31.877 33.2014 30.9255C29.3003 26.9508 20.4167 17.3064 20.4167 11.8944C20.4167 5.32275 26.9427 0 35 0C43.0573 0 49.5833 5.32275 49.5833 11.8944ZM50.5556 19.8637C50.9809 19.1797 51.3698 18.4958 51.7222 17.8218C51.783 17.7029 51.8438 17.574 51.9045 17.4551L66.0017 12.8559C67.9219 12.2314 70 13.3812 70 15.0663V41.908C70 42.8794 69.2708 43.7516 68.1649 44.1184L50.5556 49.8574V19.8637ZM16.7222 13.7083C17.0139 15.1059 17.5972 16.5134 18.2778 17.8218C18.6302 18.4958 19.0191 19.1797 19.4444 19.8637V44.7825L3.99826 49.8277C2.07813 50.4522 0 49.3024 0 47.6173V20.7756C0 19.8042 0.729167 18.9319 1.83507 18.5652L16.7344 13.7083H16.7222ZM39.8368 32.9079C41.526 31.1832 44.1753 28.3781 46.6667 25.2756V49.9863L23.3333 44.5446V25.2756C25.8247 28.3781 28.474 31.1832 30.1632 32.9079C32.6545 35.4454 37.3455 35.4454 39.8368 32.9079ZM35 15.0663C36.2892 15.0663 37.5257 14.6485 38.4373 13.905C39.349 13.1615 39.8611 12.153 39.8611 11.1015C39.8611 10.0499 39.349 9.04146 38.4373 8.29792C37.5257 7.55437 36.2892 7.13665 35 7.13665C33.7108 7.13665 32.4743 7.55437 31.5627 8.29792C30.651 9.04146 30.1389 10.0499 30.1389 11.1015C30.1389 12.153 30.651 13.1615 31.5627 13.905C32.4743 14.6485 33.7108 15.0663 35 15.0663Z" fill="#3E7A4A"/>
</svg>
