<svg width="42" height="50" viewBox="0 0 42 50" fill="none" xmlns="http://www.w3.org/2000/svg">
<path d="M21 0.00249999V16.2517C21 17.2462 21.4148 18.2 22.1533 18.9032C22.8917 19.6064 23.8932 20.0015 24.9375 20.0015H42V45.0002C42 46.3263 41.4469 47.598 40.4623 48.5356C39.4777 49.4732 38.1424 50 36.75 50H18.0285C18.2516 49.375 18.375 48.6951 18.375 47.9776V37.5031C20.2706 35.0961 21.1909 32.1187 20.967 29.1174C20.743 26.1162 19.3898 23.2926 17.1558 21.1651C14.9218 19.0376 11.9569 17.7489 8.80542 17.5356C5.65398 17.3223 2.52751 18.1987 0 20.004V4.99975C0 3.67373 0.553123 2.40203 1.53769 1.46439C2.52226 0.526758 3.85761 0 5.25 0H21V0.00249999ZM7.875 22.5014C9.46985 22.5014 11.0271 22.9626 12.3407 23.8239C13.6543 24.6852 14.6623 25.9061 15.2314 27.3249C15.8005 28.7438 15.9038 30.2937 15.5277 31.7697C15.1515 33.2457 14.3137 34.5781 13.125 35.5907V47.9776C13.125 48.1908 13.0677 48.4004 12.9587 48.5865C12.8497 48.7726 12.6925 48.9291 12.502 49.0411C12.3116 49.1531 12.0942 49.2168 11.8706 49.2263C11.647 49.2357 11.4246 49.1905 11.2245 49.095L7.875 47.5001L4.5255 49.095C4.3254 49.1905 4.10298 49.2357 3.87938 49.2263C3.65578 49.2168 3.43843 49.1531 3.24799 49.0411C3.05754 48.9291 2.90033 48.7726 2.79129 48.5865C2.68225 48.4004 2.62501 48.1908 2.625 47.9776V35.5907C1.43631 34.5781 0.598468 33.2457 0.222339 31.7697C-0.15379 30.2937 -0.0504778 28.7438 0.518605 27.3249C1.08769 25.9061 2.09572 24.6852 3.40931 23.8239C4.72291 22.9626 6.28015 22.5014 7.875 22.5014ZM26.25 0.109995C27.2446 0.310873 28.1565 0.78244 28.875 1.46743L40.4617 12.5019C41.181 13.1862 41.6762 14.0546 41.8871 15.0018H26.25V0.109995Z" fill="#3E7A4A"/>
</svg>
