<svg width="70" height="70" viewBox="0 0 70 70" fill="none" xmlns="http://www.w3.org/2000/svg">
<path d="M70 11.6667V7.77778C70 6.74638 69.5903 5.75723 68.861 5.02792C68.1317 4.29861 67.1425 3.88889 66.1111 3.88889H27.2222V0H15.5556V3.88889H11.6667V11.6667H15.5556V46.6667H11.6667V38.8889H3.88889V46.6667H0V54.4444H3.88889V70H11.6667V54.4444H31.1111V70H38.8889V54.4444H42.7778V46.6667H38.8889V38.8889H31.1111V46.6667H27.2222V11.6667H58.3333V29.6333C56.5056 30.2944 55.1833 32.0056 55.1833 34.0667C55.1833 35.7778 56.1167 37.3333 57.5556 38.1889V42.7778H59.9667C61.2889 42.7778 62.3389 43.8667 62.3389 45.1889C62.3389 46.5111 61.2889 47.6 59.9667 47.6C59.1111 47.6 58.3333 47.1333 57.9056 46.3944C57.5815 45.8525 57.0578 45.4593 56.447 45.2993C55.8362 45.1393 55.187 45.2254 54.6389 45.5389C53.4722 46.1611 53.0833 47.6389 53.7444 48.8056C55.0278 50.9833 57.4 52.3833 59.9667 52.3833C63.8944 52.3833 67.1222 49.1556 67.1222 45.1889C67.1222 42.1556 65.1778 39.4333 62.3389 38.4222V38.1889C63.8167 37.3333 64.75 35.7778 64.75 34.0667C64.75 32.2778 63.7 30.7611 62.2222 29.9444V11.6667H70ZM23.3333 41.4556L19.4444 45.3444V39.8222L23.3333 35.9333V41.4556ZM23.3333 29.9833L19.4444 33.8722V28.35L23.3333 24.4611V29.9833ZM19.4444 22.2056V16.6833L23.3333 12.7944V18.3167L19.4444 22.2056Z" fill="#808080"/>
</svg>
