<svg width="70" height="70" viewBox="0 0 70 70" fill="none" xmlns="http://www.w3.org/2000/svg">
<g clip-path="url(#clip0_206_8)">
<path d="M70 17.5L34.7375 0L0 17.5V21.875H4.375V70H13.125V30.625H56.875V70H65.625V21.875H70V17.5ZM17.5 26.25V21.875H26.25V26.25H17.5ZM30.625 26.25V21.875H39.375V26.25H30.625ZM43.75 26.25V21.875H52.5V26.25H43.75Z" fill="#808080"/>
<path d="M26.25 39.375H21.875V35H17.5V48.125H30.625V35H26.25V39.375ZM26.25 56.875H21.875V52.5H17.5V65.625H30.625V52.5H26.25V56.875ZM43.75 56.875H39.375V52.5H35V65.625H48.125V52.5H43.75V56.875Z" fill="#808080"/>
</g>
<defs>
<clipPath id="clip0_206_8">
<rect width="70" height="70" fill="white"/>
</clipPath>
</defs>
</svg>
