<svg width="70" height="70" viewBox="0 0 70 70" fill="none" xmlns="http://www.w3.org/2000/svg">
<path d="M19.0909 70C16.4394 70 14.1856 68.8657 12.3295 66.5972C10.4735 64.3287 9.54545 61.5741 9.54545 58.3333H6.36364C4.61364 58.3333 3.11606 57.5724 1.87091 56.0506C0.623637 54.5261 0 52.6944 0 50.5556V31.1111H35V15.5556C35 13.4167 35.6236 11.5863 36.8709 10.0644C38.1161 8.54 39.6136 7.77778 41.3636 7.77778H47.7273V3.88889C47.7273 2.78704 48.0327 1.86278 48.6436 1.11611C49.2524 0.372037 50.0076 0 50.9091 0H54.0909C54.9924 0 55.7476 0.372037 56.3564 1.11611C56.9673 1.86278 57.2727 2.78704 57.2727 3.88889V7.77778H59.0227C60.4015 7.77778 61.6477 8.26389 62.7614 9.23611C63.875 10.2083 64.6439 11.5046 65.0682 13.125L69.6818 29.8472C69.7879 30.2361 69.8674 30.6406 69.9205 31.0606C69.9735 31.4831 70 31.9213 70 32.375V58.3333H60.4545C60.4545 61.5741 59.5265 64.3287 57.6705 66.5972C55.8144 68.8657 53.5606 70 50.9091 70C48.2576 70 46.0038 68.8657 44.1477 66.5972C42.2917 64.3287 41.3636 61.5741 41.3636 58.3333H28.6364C28.6364 61.5741 27.7083 64.3287 25.8523 66.5972C23.9962 68.8657 21.7424 70 19.0909 70ZM19.0909 62.2222C19.9924 62.2222 20.7486 61.8489 21.3595 61.1022C21.9683 60.3581 22.2727 59.4352 22.2727 58.3333C22.2727 57.2315 21.9683 56.3085 21.3595 55.5644C20.7486 54.8178 19.9924 54.4444 19.0909 54.4444C18.1894 54.4444 17.4332 54.8178 16.8223 55.5644C16.2135 56.3085 15.9091 57.2315 15.9091 58.3333C15.9091 59.4352 16.2135 60.3581 16.8223 61.1022C17.4332 61.8489 18.1894 62.2222 19.0909 62.2222ZM50.9091 62.2222C51.8106 62.2222 52.5658 61.8489 53.1745 61.1022C53.7855 60.3581 54.0909 59.4352 54.0909 58.3333C54.0909 57.2315 53.7855 56.3085 53.1745 55.5644C52.5658 54.8178 51.8106 54.4444 50.9091 54.4444C50.0076 54.4444 49.2524 54.8178 48.6436 55.5644C48.0327 56.3085 47.7273 57.2315 47.7273 58.3333C47.7273 59.4352 48.0327 60.3581 48.6436 61.1022C49.2524 61.8489 50.0076 62.2222 50.9091 62.2222ZM6.36364 38.8889V50.5556H12.0114C12.9129 49.3241 13.9735 48.3674 15.1932 47.6856C16.4129 47.0063 17.7121 46.6667 19.0909 46.6667C20.4697 46.6667 21.7689 47.0063 22.9886 47.6856C24.2083 48.3674 25.2689 49.3241 26.1705 50.5556H35V38.8889H6.36364ZM41.3636 50.5556H43.8295C44.7311 49.3241 45.7917 48.3674 47.0114 47.6856C48.2311 47.0063 49.5303 46.6667 50.9091 46.6667C52.2879 46.6667 53.5871 47.0063 54.8068 47.6856C56.0265 48.3674 57.0871 49.3241 57.9886 50.5556H63.6364V38.8889H41.3636V50.5556ZM41.3636 31.1111H63.3182L59.0227 15.5556H41.3636V31.1111ZM0 27.2222V21.3889H3.18182V13.6111H0V7.77778H31.8182V13.6111H28.6364V21.3889H31.8182V27.2222H0ZM7.95455 21.3889H13.5227V13.6111H7.95455V21.3889ZM18.2955 21.3889H23.8636V13.6111H18.2955V21.3889Z" fill="#808080"/>
</svg>
