<svg width="43" height="50" viewBox="0 0 43 50" fill="none" xmlns="http://www.w3.org/2000/svg">
<path d="M6.09857 0H36.5914C38.2089 0 39.7601 0.522053 40.9038 1.45131C42.0475 2.38057 42.69 3.64092 42.69 4.95509V44.5958C42.69 45.91 42.0475 47.1703 40.9038 48.0996C39.7601 49.0289 38.2089 49.5509 36.5914 49.5509H6.09857C4.48113 49.5509 2.92993 49.0289 1.78623 48.0996C0.642526 47.1703 0 45.91 0 44.5958V4.95509C0 3.64092 0.642526 2.38057 1.78623 1.45131C2.92993 0.522053 4.48113 0 6.09857 0ZM6.09857 4.95509V14.8653H36.5914V4.95509H6.09857ZM6.09857 19.8204V24.7755H12.1971V19.8204H6.09857ZM18.2957 19.8204V24.7755H24.3943V19.8204H18.2957ZM30.4929 19.8204V24.7755H36.5914V19.8204H30.4929ZM6.09857 29.7305V34.6856H12.1971V29.7305H6.09857ZM18.2957 29.7305V34.6856H24.3943V29.7305H18.2957ZM30.4929 29.7305V34.6856H36.5914V29.7305H30.4929ZM6.09857 39.6407V44.5958H12.1971V39.6407H6.09857ZM18.2957 39.6407V44.5958H24.3943V39.6407H18.2957ZM30.4929 39.6407V44.5958H36.5914V39.6407H30.4929Z" fill="#808080"/>
</svg>
