<svg width="25" height="25" viewBox="0 0 25 25" fill="none" xmlns="http://www.w3.org/2000/svg">
<path d="M22.8809 6.81641C22.7911 6.45637 22.6154 6.12347 22.3688 5.84624C22.1221 5.569 21.812 5.3557 21.4648 5.22461C18.125 3.93555 12.793 3.94531 12.5 3.94531C12.207 3.94531 6.875 3.93555 3.53516 5.22461C3.18803 5.3557 2.87786 5.569 2.63124 5.84624C2.38462 6.12347 2.2089 6.45637 2.11914 6.81641C1.86523 7.78321 1.5625 9.56055 1.5625 12.5C1.5625 15.4395 1.86523 17.2168 2.11914 18.1836C2.2089 18.5436 2.38462 18.8765 2.63124 19.1538C2.87786 19.431 3.18803 19.6443 3.53516 19.7754C6.73828 21.0156 11.7578 21.0547 12.4316 21.0547H12.5684C13.2422 21.0547 18.2617 21.0156 21.4648 19.7754C21.812 19.6443 22.1221 19.431 22.3688 19.1538C22.6154 18.8765 22.7911 18.5436 22.8809 18.1836C23.1348 17.2168 23.4375 15.4395 23.4375 12.5C23.4375 9.56055 23.1348 7.78321 22.8809 6.81641ZM15.8398 12.8223L11.1523 15.9473C11.0902 15.993 11.0147 16.017 10.9375 16.0156C10.8728 16.0132 10.8095 15.9965 10.752 15.9668C10.6895 15.9343 10.6373 15.8852 10.6011 15.8249C10.5649 15.7645 10.5462 15.6954 10.5469 15.625V9.375C10.5462 9.30465 10.5649 9.23547 10.6011 9.17513C10.6373 9.1148 10.6895 9.06567 10.752 9.0332C10.8142 8.99998 10.8843 8.98425 10.9548 8.98769C11.0253 8.99113 11.0936 9.01361 11.1523 9.05274L15.8398 12.1777C15.8943 12.212 15.9392 12.2596 15.9703 12.316C16.0014 12.3723 16.0177 12.4356 16.0177 12.5C16.0177 12.5644 16.0014 12.6277 15.9703 12.6841C15.9392 12.7404 15.8943 12.788 15.8398 12.8223Z" fill="#808080"/>
</svg>
